<svg width="192" height="192" viewBox="0 0 192 192" fill="none" xmlns="http://www.w3.org/2000/svg">
<g clip-path="url(#clip0_22_127)">
<path d="M174 0H18C8.05887 0 0 8.05887 0 18V174C0 183.941 8.05887 192 18 192H174C183.941 192 192 183.941 192 174V18C192 8.05887 183.941 0 174 0Z" fill="url(#paint0_linear_22_127)"/>
<path opacity="0.8" d="M103.159 98.7559L148.58 139.993L133.601 156.493L87.873 114.978L49.2188 155.999L33 140.717L83.1084 87.54H41.1094V65.2559H134.728L103.159 98.7559ZM160 88.9033L144.656 105.064L122.521 84.0488L137.863 67.8867L160 88.9033ZM145.005 32C153.154 32 159.761 38.6064 159.762 46.7559C159.762 54.9055 153.155 61.5127 145.005 61.5127C136.855 61.5125 130.249 54.9054 130.249 46.7559C130.249 38.6065 136.856 32.0002 145.005 32Z" fill="white"/>
</g>
<defs>
<linearGradient id="paint0_linear_22_127" x1="96" y1="0" x2="96" y2="192" gradientUnits="userSpaceOnUse">
<stop stop-color="#E73627"/>
<stop offset="1" stop-color="#420E0E"/>
</linearGradient>
<clipPath id="clip0_22_127">
<rect width="192" height="192" fill="white"/>
</clipPath>
</defs>
</svg>
