<svg width="192" height="192" viewBox="0 0 192 192" fill="none" xmlns="http://www.w3.org/2000/svg">
<rect width="192" height="192" rx="18" fill="#CDFF00"/>
<path d="M103.159 98.7559L148.58 139.993L133.601 156.493L87.873 114.978L49.2188 155.999L33 140.717L83.1084 87.54H41.1094V65.2559H134.728L103.159 98.7559ZM160 88.9033L144.656 105.064L122.521 84.0488L137.863 67.8867L160 88.9033ZM145.005 32C153.154 32 159.761 38.6064 159.762 46.7559C159.762 54.9055 153.155 61.5127 145.005 61.5127C136.855 61.5125 130.249 54.9054 130.249 46.7559C130.249 38.6065 136.856 32.0002 145.005 32Z" fill="black"/>
</svg>
