<svg width="1420" height="314" viewBox="0 0 1420 314" fill="none" xmlns="http://www.w3.org/2000/svg">
<rect width="1420" height="314" fill="white"/>
<path d="M179.027 163.199L252.251 233.81L226.568 260.443L153.651 190.129L87.9277 259.877L61 234.503L144.195 146.214H74.4639V109.214H229.899L179.027 163.199ZM271.86 148.477L246.385 175.311L209.632 140.417L235.106 113.583L271.86 148.477ZM246.964 54C260.495 54 271.464 64.969 271.464 78.5C271.464 92.031 260.495 103 246.964 103C233.433 103 222.464 92.031 222.464 78.5C222.464 64.969 233.433 54 246.964 54Z" fill="black"/>
<path d="M339.838 225.202H388.456L382.462 258.28H290.11L317.86 101.77H361.372L339.838 225.202Z" fill="black"/>
<path d="M457.101 259.834C446.297 259.834 436.677 257.688 428.241 253.396C419.953 249.104 413.515 243.036 408.927 235.192C404.339 227.348 402.045 218.172 402.045 207.664C402.045 193.456 405.375 180.58 412.035 169.036C418.843 157.492 428.167 148.464 440.007 141.952C451.847 135.44 465.093 132.184 479.745 132.184C490.549 132.184 500.095 134.33 508.383 138.622C516.819 142.914 523.331 149.056 527.919 157.048C532.655 164.892 535.023 174.068 535.023 184.576C535.023 198.932 531.619 211.882 524.811 223.426C518.003 234.822 508.679 243.776 496.839 250.288C484.999 256.652 471.753 259.834 457.101 259.834ZM463.761 222.316C468.941 222.316 473.529 220.688 477.525 217.432C481.669 214.176 484.777 209.958 486.849 204.778C489.069 199.598 490.179 194.27 490.179 188.794C490.179 182.578 488.551 177.842 485.295 174.586C482.187 171.33 478.117 169.702 473.085 169.702C467.757 169.702 463.095 171.33 459.099 174.586C455.251 177.842 452.217 182.06 449.997 187.24C447.925 192.42 446.889 197.822 446.889 203.446C446.889 209.662 448.443 214.398 451.551 217.654C454.659 220.762 458.729 222.316 463.761 222.316Z" fill="black"/>
<path d="M544.29 195.898C546.658 182.874 551.32 171.626 558.276 162.154C565.38 152.534 574.112 145.134 584.472 139.954C594.98 134.774 606.376 132.184 618.66 132.184C634.496 132.184 647.076 136.55 656.4 145.282C665.724 153.866 670.608 165.928 671.052 181.468H624.654C623.47 173.328 618.956 169.258 611.112 169.258C605.636 169.258 600.9 171.552 596.904 176.14C592.908 180.58 590.17 187.166 588.69 195.898C588.098 198.858 587.802 201.818 587.802 204.778C587.802 210.698 589.06 215.212 591.576 218.32C594.092 221.28 597.496 222.76 601.788 222.76C609.78 222.76 615.626 218.69 619.326 210.55H665.724C659.952 225.942 650.85 238.004 638.418 246.736C626.134 255.468 612 259.834 596.016 259.834C579.736 259.834 566.786 255.394 557.166 246.514C547.694 237.634 542.958 225.424 542.958 209.884C542.958 205.444 543.402 200.782 544.29 195.898Z" fill="black"/>
<path d="M679.137 195.898C681.505 183.022 685.871 171.774 692.235 162.154C698.599 152.534 706.221 145.134 715.101 139.954C724.129 134.774 733.601 132.184 743.517 132.184C752.101 132.184 759.205 133.886 764.829 137.29C770.453 140.694 774.375 145.282 776.595 151.054L779.703 133.738H823.215L801.237 258.28H757.725L760.833 240.964C756.541 246.736 750.917 251.324 743.961 254.728C737.005 258.132 729.309 259.834 720.873 259.834C707.849 259.834 697.415 255.542 689.571 246.958C681.727 238.226 677.805 226.386 677.805 211.438C677.805 206.554 678.249 201.374 679.137 195.898ZM768.825 195.898C769.269 193.678 769.491 191.606 769.491 189.682C769.491 183.466 767.715 178.656 764.163 175.252C760.759 171.848 756.319 170.146 750.843 170.146C744.331 170.146 738.485 172.44 733.305 177.028C728.125 181.468 724.869 187.758 723.537 195.898C723.093 198.118 722.871 200.264 722.871 202.336C722.871 208.552 724.573 213.362 727.977 216.766C731.529 220.17 736.043 221.872 741.519 221.872C748.031 221.872 753.877 219.578 759.057 214.99C764.237 210.402 767.493 204.038 768.825 195.898Z" fill="black"/>
<path d="M898.848 94L869.766 258.28H826.032L855.114 94H898.848Z" fill="black"/>
<path d="M1028.19 101.77L1022.19 136.402H959.591L954.707 163.93H1000.66L994.889 197.008H948.935L938.057 258.28H894.323L922.073 101.77H1028.19Z" fill="black"/>
<path d="M1097.35 132.184C1113.63 132.184 1126.51 136.55 1135.98 145.282C1145.6 154.014 1150.41 165.928 1150.41 181.024C1150.41 186.056 1150.04 190.496 1149.3 194.344C1148.41 199.08 1147.52 202.484 1146.64 204.556H1064.27C1064.13 205.444 1064.05 206.776 1064.05 208.552C1064.05 214.176 1065.38 218.32 1068.05 220.984C1070.86 223.648 1074.56 224.98 1079.15 224.98C1086.4 224.98 1092.17 221.724 1096.46 215.212H1142.64C1139.24 223.796 1134.13 231.492 1127.32 238.3C1120.66 244.96 1112.74 250.214 1103.57 254.062C1094.54 257.91 1084.92 259.834 1074.71 259.834C1058.43 259.834 1045.48 255.394 1035.86 246.514C1026.24 237.634 1021.43 225.424 1021.43 209.884C1021.43 205.444 1021.87 200.782 1022.76 195.898C1025.13 182.874 1029.79 171.626 1036.75 162.154C1043.85 152.534 1052.58 145.134 1062.94 139.954C1073.45 134.774 1084.92 132.184 1097.35 132.184ZM1106.45 185.02C1106.75 182.948 1106.9 181.616 1106.9 181.024C1106.9 176.288 1105.42 172.736 1102.46 170.368C1099.5 167.852 1095.65 166.594 1090.91 166.594C1085.44 166.594 1080.7 168.148 1076.71 171.256C1072.71 174.364 1069.75 178.952 1067.83 185.02H1106.45Z" fill="black"/>
<path d="M1228.38 94L1199.3 258.28H1155.56L1184.65 94H1228.38Z" fill="black"/>
<path d="M1281.8 259.834C1270.99 259.834 1261.37 257.688 1252.94 253.396C1244.65 249.104 1238.21 243.036 1233.62 235.192C1229.03 227.348 1226.74 218.172 1226.74 207.664C1226.74 193.456 1230.07 180.58 1236.73 169.036C1243.54 157.492 1252.86 148.464 1264.7 141.952C1276.54 135.44 1289.79 132.184 1304.44 132.184C1315.24 132.184 1324.79 134.33 1333.08 138.622C1341.51 142.914 1348.03 149.056 1352.61 157.048C1357.35 164.892 1359.72 174.068 1359.72 184.576C1359.72 198.932 1356.31 211.882 1349.51 223.426C1342.7 234.822 1333.37 243.776 1321.53 250.288C1309.69 256.652 1296.45 259.834 1281.8 259.834ZM1288.46 222.316C1293.64 222.316 1298.22 220.688 1302.22 217.432C1306.36 214.176 1309.47 209.958 1311.54 204.778C1313.76 199.598 1314.87 194.27 1314.87 188.794C1314.87 182.578 1313.25 177.842 1309.99 174.586C1306.88 171.33 1302.81 169.702 1297.78 169.702C1292.45 169.702 1287.79 171.33 1283.79 174.586C1279.95 177.842 1276.91 182.06 1274.69 187.24C1272.62 192.42 1271.58 197.822 1271.58 203.446C1271.58 209.662 1273.14 214.398 1276.25 217.654C1279.35 220.762 1283.42 222.316 1288.46 222.316Z" fill="black"/>
</svg>
